<mxfile host="app.diagrams.net" modified="2025-01-30T10:00:00.000Z" agent="5.0" etag="xxx" version="24.0.0" type="device">
  <diagram name="CloudVPS Payment Flow" id="payment-flow">
    <mxGraphModel dx="1422" dy="794" grid="1" gridSize="10" guides="1" tooltips="1" connect="1" arrows="1" fold="1" page="1" pageScale="1" pageWidth="1169" pageHeight="827" math="0" shadow="0">
      <root>
        <mxCell id="0" />
        <mxCell id="1" parent="0" />

        <!-- Title -->
        <mxCell id="title" value="CloudVPS Payment Flow - Complete Integration" style="text;html=1;strokeColor=none;fillColor=none;align=center;verticalAlign=middle;whiteSpace=wrap;rounded=0;fontSize=20;fontStyle=1;" vertex="1" parent="1">
          <mxGeometry x="300" y="20" width="600" height="30" as="geometry" />
        </mxCell>
        
        <!-- User/Browser -->
        <mxCell id="user" value="👤 User&#xa;(Browser)" style="rounded=1;whiteSpace=wrap;html=1;fillColor=#e1d5e7;strokeColor=#9673a6;fontSize=12;fontStyle=1;" vertex="1" parent="1">
          <mxGeometry x="50" y="100" width="100" height="60" as="geometry" />
        </mxCell>
        
        <!-- CloudVPS Frontend -->
        <mxCell id="frontend" value="🌐 CloudVPS Frontend&#xa;:3000&#xa;(Next.js)" style="rounded=1;whiteSpace=wrap;html=1;fillColor=#d5e8d4;strokeColor=#82b366;fontSize=12;fontStyle=1;" vertex="1" parent="1">
          <mxGeometry x="200" y="100" width="140" height="60" as="geometry" />
        </mxCell>
        
        <!-- Middleware -->
        <mxCell id="middleware" value="⚙️ Systrix Middleware&#xa;:3005&#xa;(Next.js API)" style="rounded=1;whiteSpace=wrap;html=1;fillColor=#fff2cc;strokeColor=#d6b656;fontSize=12;fontStyle=1;" vertex="1" parent="1">
          <mxGeometry x="400" y="100" width="140" height="60" as="geometry" />
        </mxCell>
        
        <!-- HostBill -->
        <mxCell id="hostbill" value="🏢 HostBill&#xa;(Billing System)" style="rounded=1;whiteSpace=wrap;html=1;fillColor=#f8cecc;strokeColor=#b85450;fontSize=12;fontStyle=1;" vertex="1" parent="1">
          <mxGeometry x="600" y="100" width="120" height="60" as="geometry" />
        </mxCell>
        
        <!-- Comgate -->
        <mxCell id="comgate" value="💳 Comgate&#xa;(Payment Gateway)" style="rounded=1;whiteSpace=wrap;html=1;fillColor=#dae8fc;strokeColor=#6c8ebf;fontSize=12;fontStyle=1;" vertex="1" parent="1">
          <mxGeometry x="800" y="100" width="120" height="60" as="geometry" />
        </mxCell>
        
        <!-- Step 1: Order Creation -->
        <mxCell id="step1-title" value="📋 STEP 1: ORDER CREATION" style="text;html=1;strokeColor=none;fillColor=#e1d5e7;align=center;verticalAlign=middle;whiteSpace=wrap;rounded=1;fontSize=14;fontStyle=1;" vertex="1" parent="1">
          <mxGeometry x="50" y="200" width="870" height="30" as="geometry" />
        </mxCell>
        
        <!-- Step 1 Flow -->
        <mxCell id="s1-1" value="1. Fill Order Form" style="edgeStyle=orthogonalEdgeStyle;rounded=0;orthogonalLoop=1;jettySize=auto;html=1;fontSize=10;" edge="1" parent="1" source="user" target="frontend">
          <mxGeometry relative="1" as="geometry">
            <mxPoint x="150" y="250" as="sourcePoint" />
            <mxPoint x="200" y="250" as="targetPoint" />
            <Array as="points">
              <mxPoint x="100" y="250" />
              <mxPoint x="270" y="250" />
            </Array>
          </mxGeometry>
        </mxCell>
        
        <mxCell id="s1-2" value="2. POST /api/orders/create" style="edgeStyle=orthogonalEdgeStyle;rounded=0;orthogonalLoop=1;jettySize=auto;html=1;fontSize=10;" edge="1" parent="1" source="frontend" target="middleware">
          <mxGeometry relative="1" as="geometry">
            <mxPoint x="340" y="270" as="sourcePoint" />
            <mxPoint x="400" y="270" as="targetPoint" />
            <Array as="points">
              <mxPoint x="270" y="270" />
              <mxPoint x="470" y="270" />
            </Array>
          </mxGeometry>
        </mxCell>
        
        <mxCell id="s1-3" value="3. Create Client & Order" style="edgeStyle=orthogonalEdgeStyle;rounded=0;orthogonalLoop=1;jettySize=auto;html=1;fontSize=10;" edge="1" parent="1" source="middleware" target="hostbill">
          <mxGeometry relative="1" as="geometry">
            <mxPoint x="540" y="290" as="sourcePoint" />
            <mxPoint x="600" y="290" as="targetPoint" />
            <Array as="points">
              <mxPoint x="470" y="290" />
              <mxPoint x="660" y="290" />
            </Array>
          </mxGeometry>
        </mxCell>
        
        <mxCell id="s1-4" value="4. Return Order ID & Invoice ID" style="edgeStyle=orthogonalEdgeStyle;rounded=0;orthogonalLoop=1;jettySize=auto;html=1;fontSize=10;dashed=1;" edge="1" parent="1" source="hostbill" target="middleware">
          <mxGeometry relative="1" as="geometry">
            <mxPoint x="600" y="310" as="sourcePoint" />
            <mxPoint x="540" y="310" as="targetPoint" />
            <Array as="points">
              <mxPoint x="660" y="310" />
              <mxPoint x="470" y="310" />
            </Array>
          </mxGeometry>
        </mxCell>
        
        <mxCell id="s1-5" value="5. Return Order Details" style="edgeStyle=orthogonalEdgeStyle;rounded=0;orthogonalLoop=1;jettySize=auto;html=1;fontSize=10;dashed=1;" edge="1" parent="1" source="middleware" target="frontend">
          <mxGeometry relative="1" as="geometry">
            <mxPoint x="400" y="330" as="sourcePoint" />
            <mxPoint x="340" y="330" as="targetPoint" />
            <Array as="points">
              <mxPoint x="470" y="330" />
              <mxPoint x="270" y="330" />
            </Array>
          </mxGeometry>
        </mxCell>
        
        <!-- Step 2: Payment Initialization -->
        <mxCell id="step2-title" value="💳 STEP 2: PAYMENT INITIALIZATION" style="text;html=1;strokeColor=none;fillColor=#fff2cc;align=center;verticalAlign=middle;whiteSpace=wrap;rounded=1;fontSize=14;fontStyle=1;" vertex="1" parent="1">
          <mxGeometry x="50" y="370" width="870" height="30" as="geometry" />
        </mxCell>
        
        <!-- Step 2 Flow -->
        <mxCell id="s2-1" value="1. Select Payment Method & Initialize" style="edgeStyle=orthogonalEdgeStyle;rounded=0;orthogonalLoop=1;jettySize=auto;html=1;fontSize=10;" edge="1" parent="1">
          <mxGeometry relative="1" as="geometry">
            <mxPoint x="100" y="420" as="sourcePoint" />
            <mxPoint x="270" y="420" as="targetPoint" />
          </mxGeometry>
        </mxCell>
        
        <mxCell id="s2-2" value="2. POST /api/payments/initialize" style="edgeStyle=orthogonalEdgeStyle;rounded=0;orthogonalLoop=1;jettySize=auto;html=1;fontSize=10;" edge="1" parent="1">
          <mxGeometry relative="1" as="geometry">
            <mxPoint x="270" y="440" as="sourcePoint" />
            <mxPoint x="470" y="440" as="targetPoint" />
          </mxGeometry>
        </mxCell>
        
        <mxCell id="s2-3" value="3. Initialize Comgate Payment" style="edgeStyle=orthogonalEdgeStyle;rounded=0;orthogonalLoop=1;jettySize=auto;html=1;fontSize=10;" edge="1" parent="1">
          <mxGeometry relative="1" as="geometry">
            <mxPoint x="470" y="460" as="sourcePoint" />
            <mxPoint x="860" y="460" as="targetPoint" />
          </mxGeometry>
        </mxCell>
        
        <mxCell id="s2-4" value="4. Return Transaction ID & Payment URL" style="edgeStyle=orthogonalEdgeStyle;rounded=0;orthogonalLoop=1;jettySize=auto;html=1;fontSize=10;dashed=1;" edge="1" parent="1">
          <mxGeometry relative="1" as="geometry">
            <mxPoint x="860" y="480" as="sourcePoint" />
            <mxPoint x="470" y="480" as="targetPoint" />
          </mxGeometry>
        </mxCell>
        
        <mxCell id="s2-5" value="5. Return Payment URL" style="edgeStyle=orthogonalEdgeStyle;rounded=0;orthogonalLoop=1;jettySize=auto;html=1;fontSize=10;dashed=1;" edge="1" parent="1">
          <mxGeometry relative="1" as="geometry">
            <mxPoint x="470" y="500" as="sourcePoint" />
            <mxPoint x="270" y="500" as="targetPoint" />
          </mxGeometry>
        </mxCell>
        
        <!-- Step 3: Payment Processing -->
        <mxCell id="step3-title" value="🔄 STEP 3: PAYMENT PROCESSING" style="text;html=1;strokeColor=none;fillColor=#dae8fc;align=center;verticalAlign=middle;whiteSpace=wrap;rounded=1;fontSize=14;fontStyle=1;" vertex="1" parent="1">
          <mxGeometry x="50" y="540" width="870" height="30" as="geometry" />
        </mxCell>
        
        <!-- Step 3 Flow -->
        <mxCell id="s3-1" value="1. Redirect to Comgate" style="edgeStyle=orthogonalEdgeStyle;rounded=0;orthogonalLoop=1;jettySize=auto;html=1;fontSize=10;" edge="1" parent="1">
          <mxGeometry relative="1" as="geometry">
            <mxPoint x="100" y="590" as="sourcePoint" />
            <mxPoint x="860" y="590" as="targetPoint" />
          </mxGeometry>
        </mxCell>
        
        <mxCell id="s3-2" value="2. Complete Payment" style="edgeStyle=orthogonalEdgeStyle;rounded=0;orthogonalLoop=1;jettySize=auto;html=1;fontSize=10;" edge="1" parent="1">
          <mxGeometry relative="1" as="geometry">
            <mxPoint x="100" y="610" as="sourcePoint" />
            <mxPoint x="860" y="610" as="targetPoint" />
          </mxGeometry>
        </mxCell>
        
        <!-- Step 4: Callback Processing -->
        <mxCell id="step4-title" value="🔔 STEP 4: CALLBACK PROCESSING & INVOICE UPDATE" style="text;html=1;strokeColor=none;fillColor=#f8cecc;align=center;verticalAlign=middle;whiteSpace=wrap;rounded=1;fontSize=14;fontStyle=1;" vertex="1" parent="1">
          <mxGeometry x="50" y="650" width="870" height="30" as="geometry" />
        </mxCell>
        
        <!-- Step 4 Flow -->
        <mxCell id="s4-1" value="1. POST /api/payments/comgate/callback" style="edgeStyle=orthogonalEdgeStyle;rounded=0;orthogonalLoop=1;jettySize=auto;html=1;fontSize=10;" edge="1" parent="1">
          <mxGeometry relative="1" as="geometry">
            <mxPoint x="860" y="700" as="sourcePoint" />
            <mxPoint x="470" y="700" as="targetPoint" />
          </mxGeometry>
        </mxCell>
        
        <mxCell id="s4-2" value="2. POST /api/invoices/mark-paid" style="edgeStyle=orthogonalEdgeStyle;rounded=0;orthogonalLoop=1;jettySize=auto;html=1;fontSize=10;" edge="1" parent="1">
          <mxGeometry relative="1" as="geometry">
            <mxPoint x="470" y="720" as="sourcePoint" />
            <mxPoint x="470" y="720" as="targetPoint" />
            <Array as="points">
              <mxPoint x="450" y="720" />
              <mxPoint x="450" y="740" />
              <mxPoint x="490" y="740" />
            </Array>
          </mxGeometry>
        </mxCell>
        
        <mxCell id="s4-3" value="3. addInvoicePayment API" style="edgeStyle=orthogonalEdgeStyle;rounded=0;orthogonalLoop=1;jettySize=auto;html=1;fontSize=10;" edge="1" parent="1">
          <mxGeometry relative="1" as="geometry">
            <mxPoint x="470" y="760" as="sourcePoint" />
            <mxPoint x="660" y="760" as="targetPoint" />
          </mxGeometry>
        </mxCell>
        
        <mxCell id="s4-4" value="4. Invoice Marked as PAID" style="edgeStyle=orthogonalEdgeStyle;rounded=0;orthogonalLoop=1;jettySize=auto;html=1;fontSize=10;dashed=1;" edge="1" parent="1">
          <mxGeometry relative="1" as="geometry">
            <mxPoint x="660" y="780" as="sourcePoint" />
            <mxPoint x="470" y="780" as="targetPoint" />
          </mxGeometry>
        </mxCell>
        
        <!-- Legend -->
        <mxCell id="legend-title" value="🔍 LEGEND" style="text;html=1;strokeColor=none;fillColor=#f5f5f5;align=center;verticalAlign=middle;whiteSpace=wrap;rounded=1;fontSize=14;fontStyle=1;" vertex="1" parent="1">
          <mxGeometry x="1000" y="200" width="120" height="30" as="geometry" />
        </mxCell>
        
        <mxCell id="legend-1" value="→ Request" style="text;html=1;strokeColor=none;fillColor=none;align=left;verticalAlign=middle;whiteSpace=wrap;rounded=0;fontSize=10;" vertex="1" parent="1">
          <mxGeometry x="1000" y="240" width="80" height="20" as="geometry" />
        </mxCell>
        
        <mxCell id="legend-2" value="⤶ Response" style="text;html=1;strokeColor=none;fillColor=none;align=left;verticalAlign=middle;whiteSpace=wrap;rounded=0;fontSize=10;" vertex="1" parent="1">
          <mxGeometry x="1000" y="260" width="80" height="20" as="geometry" />
        </mxCell>
        
        <!-- Key Features -->
        <mxCell id="features-title" value="✨ KEY FEATURES" style="text;html=1;strokeColor=none;fillColor=#e1d5e7;align=center;verticalAlign=middle;whiteSpace=wrap;rounded=1;fontSize=14;fontStyle=1;" vertex="1" parent="1">
          <mxGeometry x="1000" y="300" width="120" height="30" as="geometry" />
        </mxCell>
        
        <mxCell id="feature-1" value="• Real Comgate API" style="text;html=1;strokeColor=none;fillColor=none;align=left;verticalAlign=middle;whiteSpace=wrap;rounded=0;fontSize=10;" vertex="1" parent="1">
          <mxGeometry x="1000" y="340" width="120" height="20" as="geometry" />
        </mxCell>
        
        <mxCell id="feature-2" value="• HostBill Integration" style="text;html=1;strokeColor=none;fillColor=none;align=left;verticalAlign=middle;whiteSpace=wrap;rounded=0;fontSize=10;" vertex="1" parent="1">
          <mxGeometry x="1000" y="360" width="120" height="20" as="geometry" />
        </mxCell>
        
        <mxCell id="feature-3" value="• Auto Invoice Update" style="text;html=1;strokeColor=none;fillColor=none;align=left;verticalAlign=middle;whiteSpace=wrap;rounded=0;fontSize=10;" vertex="1" parent="1">
          <mxGeometry x="1000" y="380" width="120" height="20" as="geometry" />
        </mxCell>
        
        <mxCell id="feature-4" value="• Multi-Payment Support" style="text;html=1;strokeColor=none;fillColor=none;align=left;verticalAlign=middle;whiteSpace=wrap;rounded=0;fontSize=10;" vertex="1" parent="1">
          <mxGeometry x="1000" y="400" width="120" height="20" as="geometry" />
        </mxCell>
        
        <mxCell id="feature-5" value="• Complete Workflow" style="text;html=1;strokeColor=none;fillColor=none;align=left;verticalAlign=middle;whiteSpace=wrap;rounded=0;fontSize=10;" vertex="1" parent="1">
          <mxGeometry x="1000" y="420" width="120" height="20" as="geometry" />
        </mxCell>
        
        <!-- URLs -->
        <mxCell id="urls-title" value="🌐 TEST URLS" style="text;html=1;strokeColor=none;fillColor=#d5e8d4;align=center;verticalAlign=middle;whiteSpace=wrap;rounded=1;fontSize=14;fontStyle=1;" vertex="1" parent="1">
          <mxGeometry x="1000" y="460" width="120" height="30" as="geometry" />
        </mxCell>
        
        <mxCell id="url-1" value="localhost:3000/middleware-order-test" style="text;html=1;strokeColor=none;fillColor=none;align=left;verticalAlign=middle;whiteSpace=wrap;rounded=0;fontSize=8;" vertex="1" parent="1">
          <mxGeometry x="1000" y="500" width="120" height="20" as="geometry" />
        </mxCell>
        
        <mxCell id="url-2" value="localhost:3000/payment-flow-test" style="text;html=1;strokeColor=none;fillColor=none;align=left;verticalAlign=middle;whiteSpace=wrap;rounded=0;fontSize=8;" vertex="1" parent="1">
          <mxGeometry x="1000" y="520" width="120" height="20" as="geometry" />
        </mxCell>
        
        <mxCell id="url-3" value="localhost:3005/dashboard" style="text;html=1;strokeColor=none;fillColor=none;align=left;verticalAlign=middle;whiteSpace=wrap;rounded=0;fontSize=8;" vertex="1" parent="1">
          <mxGeometry x="1000" y="540" width="120" height="20" as="geometry" />
        </mxCell>
        
      </root>
    </mxGraphModel>
  </diagram>
</mxfile>
